# Blender v2.79 (sub 0) OBJ File: '0.blend'
# www.blender.org
mtllib 0.mtl
o Cone.002
v -0.975491 0.393579 -0.251536
v -0.878159 -0.756282 -0.251536
v -0.119943 -0.838509 0.614489
v -0.119943 -0.838508 -1.117562
v 0.804999 0.132812 -0.831258
v 0.808392 0.042895 0.411408
v 0.058468 -0.375594 -0.491252
v 0.058469 0.586974 -0.421603
v -0.415445 -0.632534 -1.251472
v 0.222456 -0.632534 0.024330
v 0.541407 -0.080095 -1.251472
v 0.541407 -1.184973 -1.251472
v -1.112687 -0.061120 1.000000
v -0.112687 -0.061120 -1.000000
v 0.387313 -0.927146 1.000000
v 0.387313 0.804905 1.000000
vn -0.7538 -0.0638 0.6539
vn -0.1078 -0.9942 -0.0000
vn -0.7538 -0.0638 -0.6539
vn 0.8214 0.5704 0.0000
vn 0.5423 -0.8379 -0.0621
vn -0.7575 -0.0471 0.6512
vn 0.5423 0.8381 0.0592
vn -0.4496 0.0645 -0.8909
vn -0.4851 0.8402 0.2425
vn 0.9701 -0.0000 0.2425
vn -0.4851 -0.8402 0.2425
vn 0.0000 -0.0000 -1.0000
vn -0.4851 -0.8402 -0.2425
vn 0.9701 0.0000 -0.2425
vn -0.4851 0.8402 -0.2425
vn 0.0000 -0.0000 1.0000
usemtl None
s off
f 1//1 2//1 3//1
f 3//2 2//2 4//2
f 4//3 2//3 1//3
f 1//4 3//4 4//4
f 5//5 6//5 7//5
f 7//6 6//6 8//6
f 8//7 6//7 5//7
f 5//8 7//8 8//8
f 9//9 10//9 11//9
f 11//10 10//10 12//10
f 12//11 10//11 9//11
f 9//12 11//12 12//12
f 13//13 14//13 15//13
f 15//14 14//14 16//14
f 16//15 14//15 13//15
f 13//16 15//16 16//16
