# Blender v2.79 (sub 0) OBJ File: '3_head.blend'
# www.blender.org
mtllib 3_head.mtl
o Cube
v 0.121630 0.125132 0.381466
v 0.227975 0.358387 0.053301
v 0.030650 0.410063 -0.140833
v -0.121268 0.422364 0.102162
v 0.007089 -0.892915 -0.022004
v 0.582222 0.100001 -0.147702
v -0.021857 0.401386 -0.402460
v -0.326802 -0.078718 -0.149828
vn 0.2209 0.8718 0.4371
vn 0.0574 -0.2804 -0.9582
vn 0.7393 -0.1697 0.6516
vn 0.4801 0.8581 -0.1822
vn -0.7924 0.5828 -0.1803
vn -0.7312 -0.1345 0.6688
usemtl Material
s off
f 1//1 2//1 3//1 4//1
f 5//2 8//2 7//2 6//2
f 1//3 5//3 6//3 2//3
f 2//4 6//4 7//4 3//4
f 3//5 7//5 8//5 4//5
f 5//6 1//6 4//6 8//6
