# Blender v2.79 (sub 0) OBJ File: '4_head.blend'
# www.blender.org
mtllib 4_head.mtl
o Cylinder
v 0.083359 -0.117592 0.150568
v -0.002772 0.158025 0.001386
v 0.083359 -0.117592 -0.147797
v -0.175033 -0.117592 0.001386
v -0.002772 0.219564 0.001386
v 0.109000 -0.138105 0.194980
v 0.109000 -0.138105 -0.192209
v -0.226315 -0.138105 0.001386
v -0.183793 -0.112117 0.016559
v -0.011532 0.163500 0.016559
v 0.074599 -0.112117 0.165741
v 0.100879 -0.112117 0.150568
v 0.014748 0.163500 0.001386
v -0.183793 -0.112117 -0.013787
v -0.011532 0.163500 -0.013787
v 0.083359 -0.138106 0.150568
v -0.175033 -0.138106 0.001386
v 0.100879 -0.112117 -0.147797
v 0.083359 -0.138106 -0.147797
v 0.074599 -0.112117 -0.162969
vn 0.1491 0.9545 -0.2583
vn 0.5000 0.0000 -0.8660
vn 0.7010 -0.4381 -0.5628
vn 0.1369 -0.4381 0.8884
vn 0.1491 0.9545 0.2583
vn -0.8379 -0.4381 0.3257
vn 0.7010 -0.4381 0.5628
vn -0.8379 -0.4381 -0.3257
vn -0.2983 0.9545 -0.0000
vn 0.1369 -0.4381 -0.8884
vn 0.5000 -0.0000 0.8660
vn -1.0000 0.0000 -0.0000
vn -0.4772 0.2983 0.8266
vn 0.0000 -1.0000 -0.0000
vn 0.9545 0.2983 0.0000
vn -0.4772 0.2983 -0.8266
usemtl None
s off
f 9//1 1//1 4//1
f 16//2 4//2 1//2
f 4//3 15//3 2//3
f 18//4 2//4 3//4
f 20//5 4//5 3//5
f 15//6 3//6 2//6
f 10//7 4//7 2//7
f 11//8 2//8 1//8
f 12//9 3//9 1//9
f 13//10 1//10 2//10
f 17//11 3//11 4//11
f 19//12 1//12 3//12
f 11//13 8//13 6//13
f 16//14 7//14 6//14
f 7//15 12//15 6//15
f 7//16 20//16 15//16
f 17//14 6//14 8//14
f 20//16 8//16 14//16
f 13//15 7//15 5//15
f 10//13 6//13 5//13
f 9//1 11//1 1//1
f 16//2 17//2 4//2
f 4//3 14//3 15//3
f 18//4 13//4 2//4
f 20//5 14//5 4//5
f 15//6 20//6 3//6
f 10//7 9//7 4//7
f 11//8 10//8 2//8
f 12//9 18//9 3//9
f 13//10 12//10 1//10
f 17//11 19//11 3//11
f 19//12 16//12 1//12
f 11//13 9//13 8//13
f 16//14 19//14 7//14
f 7//15 18//15 12//15
f 14//16 8//16 15//16
f 5//16 7//16 15//16
f 15//16 8//16 5//16
f 8//14 7//14 17//14
f 17//14 16//14 6//14
f 7//14 19//14 17//14
f 20//16 7//16 8//16
f 5//15 6//15 13//15
f 13//15 18//15 7//15
f 6//15 12//15 13//15
f 5//13 8//13 10//13
f 10//13 11//13 6//13
f 8//13 9//13 10//13
