# Blender v2.79 (sub 0) OBJ File: '5_head.blend'
# www.blender.org
mtllib 5_head.mtl
o Cone
v -0.000000 -0.073309 -0.110770
v 0.000000 0.073115 0.000000
v 0.110770 -0.073309 0.000000
v -0.000000 -0.073309 0.110770
v -0.110770 -0.073309 -0.000000
v -0.000000 -0.073309 -0.146230
v 0.146230 -0.073309 0.000000
v -0.000000 -0.073309 0.146230
v -0.146230 -0.073309 -0.000000
v 0.000000 -0.114529 -0.108034
v 0.108034 -0.114529 0.000000
v -0.000000 -0.114529 0.108034
v -0.108034 -0.114529 -0.000000
v 0.000000 -0.114529 -0.142786
v 0.142786 -0.114529 0.000000
v -0.000000 -0.114529 0.142786
v -0.142786 -0.114529 -0.000000
v 0.000000 -0.155826 -0.105640
v 0.105640 -0.155826 0.000000
v -0.000000 -0.155826 0.105640
v -0.105640 -0.155826 -0.000000
v 0.000000 -0.155826 -0.140703
v 0.140703 -0.155826 0.000000
v -0.000000 -0.155826 0.140703
v -0.140703 -0.155826 -0.000000
v 0.000000 -0.192050 -0.139807
v 0.139807 -0.192050 0.000000
v -0.000000 -0.192050 0.139807
v -0.139807 -0.192050 -0.000000
vn 0.5776 0.5768 -0.5776
vn 0.5776 0.5768 0.5776
vn -0.5776 0.5768 0.5776
vn -0.5776 0.5768 -0.5776
vn 0.6198 0.4814 0.6198
vn 0.0000 -1.0000 0.0000
vn -0.6171 0.4882 -0.6171
vn -0.6198 0.4814 0.6198
vn 0.6198 0.4814 -0.6198
vn -0.6198 0.4814 -0.6198
vn -0.5883 0.5549 0.5883
vn 0.6171 0.4882 0.6171
vn -0.6171 0.4882 0.6171
vn 0.6171 0.4882 -0.6171
vn 0.5883 0.5549 -0.5883
vn -0.5883 0.5549 -0.5883
vn 0.5883 0.5549 0.5883
usemtl None
s off
f 6//1 2//1 7//1
f 7//2 2//2 8//2
f 8//3 2//3 9//3
f 9//4 2//4 6//4
f 3//5 4//5 16//5 15//5
f 3//6 1//6 6//6 7//6
f 4//6 3//6 7//6 8//6
f 5//6 4//6 8//6 9//6
f 1//6 5//6 9//6 6//6
f 13//7 10//7 22//7 25//7
f 4//8 5//8 17//8 16//8
f 1//9 3//9 15//9 14//9
f 5//10 1//10 14//10 17//10
f 11//6 10//6 14//6 15//6
f 12//6 11//6 15//6 16//6
f 13//6 12//6 16//6 17//6
f 10//6 13//6 17//6 14//6
f 20//11 21//11 29//11 28//11
f 11//12 12//12 24//12 23//12
f 12//13 13//13 25//13 24//13
f 10//14 11//14 23//14 22//14
f 19//6 18//6 22//6 23//6
f 20//6 19//6 23//6 24//6
f 21//6 20//6 24//6 25//6
f 18//6 21//6 25//6 22//6
f 26//6 27//6 28//6 29//6
f 18//15 19//15 27//15 26//15
f 21//16 18//16 26//16 29//16
f 19//17 20//17 28//17 27//17
